<?xml version="1.0" encoding="UTF-8"?>
<svg width="28px" height="28px" viewBox="0 0 28 28" version="1.1" xmlns="http://www.w3.org/2000/svg" xmlns:xlink="http://www.w3.org/1999/xlink">
    <!-- Generator: Sketch 48.2 (47327) - http://www.bohemiancoding.com/sketch -->
    <title>Face Neutral</title>
    <desc>Created with Sketch.</desc>
    <defs></defs>
    <g id="NPS---Survey" stroke="none" stroke-width="1" fill="none" fill-rule="evenodd" transform="translate(-668.000000, -498.000000)">
        <g id="Group-6" transform="translate(42.000000, 417.000000)" fill="#DD8B04" fill-rule="nonzero">
            <g id="Group-3" transform="translate(0.000000, 57.000000)">
                <g id="Group-2" transform="translate(602.000000, 0.000000)">
                    <path d="M38,24 C30.2764648,24 24,30.2764648 24,38 C24,45.7235352 30.2764648,52 38,52 C45.7235352,52 52,45.7235352 52,38 C52,30.309842 45.7751021,24.0634339 38.0974863,24.0095109 C38.0652991,24.0037272 38.0326981,24.0005466 38,24 Z M38,25.2173913 C45.0653343,25.2173913 50.7826087,30.9346657 50.7826087,38 C50.7826087,45.0653343 45.0653343,50.7826087 38,50.7826087 C30.9346657,50.7826087 25.2173913,45.0653343 25.2173913,38 C25.2173913,30.9346657 30.9346657,25.2173913 38,25.2173913 Z M33.1304348,33.7391304 C32.1219148,33.7391304 31.3043478,34.5566974 31.3043478,35.5652174 C31.3043478,36.5737374 32.1219148,37.3913043 33.1304348,37.3913043 C34.1389548,37.3913043 34.9565217,36.5737374 34.9565217,35.5652174 C34.9565217,34.5566974 34.1389548,33.7391304 33.1304348,33.7391304 Z M42.8695652,33.7391304 C41.8610452,33.7391304 41.0434783,34.5566974 41.0434783,35.5652174 C41.0434783,36.5737374 41.8610452,37.3913043 42.8695652,37.3913043 C43.8780852,37.3913043 44.6956522,36.5737374 44.6956522,35.5652174 C44.6956522,34.5566974 43.8780852,33.7391304 42.8695652,33.7391304 Z M31.9130435,41.6521739 C31.693526,41.6490694 31.4893418,41.7644024 31.378677,41.9540096 C31.2680123,42.1436168 31.2680123,42.3781224 31.378677,42.5677296 C31.4893418,42.7573368 31.693526,42.8726697 31.9130435,42.8695652 L44.0869565,42.8695652 C44.306474,42.8726697 44.5106582,42.7573368 44.621323,42.5677296 C44.7319877,42.3781224 44.7319877,42.1436168 44.621323,41.9540096 C44.5106582,41.7644024 44.306474,41.6490694 44.0869565,41.6521739 L31.9130435,41.6521739 Z" id="Face-Neutral"></path>
                </g>
            </g>
        </g>
    </g>
</svg>