<?xml version="1.0" encoding="UTF-8"?>
<svg width="28px" height="28px" viewBox="0 0 28 28" version="1.1" xmlns="http://www.w3.org/2000/svg" xmlns:xlink="http://www.w3.org/1999/xlink">
    <!-- Generator: Sketch 48.2 (47327) - http://www.bohemiancoding.com/sketch -->
    <title>Face Sad</title>
    <desc>Created with Sketch.</desc>
    <defs></defs>
    <g id="NPS---Survey" stroke="none" stroke-width="1" fill="none" fill-rule="evenodd" transform="translate(-66.000000, -498.000000)">
        <g id="Group-6" transform="translate(42.000000, 417.000000)" fill="#D0021B" fill-rule="nonzero">
            <g id="Group-3" transform="translate(0.000000, 57.000000)">
                <g id="Group-2">
                    <path d="M38,24 C30.2748201,24 24,30.2748201 24,38 C24,45.7251799 30.2748201,52 38,52 C45.7251799,52 52,45.7251799 52,38 C52,30.3077889 45.7760949,24.0627529 38.0962975,24.0095109 C38.0645015,24.0037904 38.0323007,24.00061 38,24 Z M38,25.2173913 C45.0673418,25.2173913 50.7826087,30.9326582 50.7826087,38 C50.7826087,45.0673418 45.0673418,50.7826087 38,50.7826087 C30.9326582,50.7826087 25.2173913,45.0673418 25.2173913,38 C25.2173913,30.9326582 30.9326582,25.2173913 38,25.2173913 Z M33.1304348,33.7391304 C32.1219148,33.7391304 31.3043478,34.5566974 31.3043478,35.5652174 C31.3043478,36.5737374 32.1219148,37.3913043 33.1304348,37.3913043 C34.1389548,37.3913043 34.9565217,36.5737374 34.9565217,35.5652174 C34.9565217,34.5566974 34.1389548,33.7391304 33.1304348,33.7391304 Z M42.8695652,33.7391304 C41.8610452,33.7391304 41.0434783,34.5566974 41.0434783,35.5652174 C41.0434783,36.5737374 41.8610452,37.3913043 42.8695652,37.3913043 C43.8780852,37.3913043 44.6956522,36.5737374 44.6956522,35.5652174 C44.6956522,34.5566974 43.8780852,33.7391304 42.8695652,33.7391304 Z M38,40.4347826 C34.077295,40.4347826 31.4826768,43.0478942 31.4826768,43.0478942 C31.3236606,43.2005651 31.2596047,43.4272741 31.3152132,43.6405866 C31.3708217,43.8538992 31.5374051,44.0204827 31.7507177,44.0760912 C31.9640303,44.1316997 32.1907392,44.0676437 32.3434102,43.9086276 C32.3434102,43.9086276 34.6183572,41.6521739 38,41.6521739 C41.3816428,41.6521739 43.6565898,43.9086276 43.6565898,43.9086276 C43.8092608,44.0676437 44.0359697,44.1316997 44.2492823,44.0760912 C44.4625949,44.0204827 44.6291783,43.8538992 44.6847868,43.6405866 C44.7403953,43.4272741 44.6763394,43.2005651 44.5173232,43.0478942 C44.5173232,43.0478942 41.922705,40.4347826 38,40.4347826 Z" id="Face-Sad"></path>
                </g>
            </g>
        </g>
    </g>
</svg>