<?xml version="1.0" encoding="UTF-8"?>
<svg width="28px" height="28px" viewBox="0 0 28 28" version="1.1" xmlns="http://www.w3.org/2000/svg" xmlns:xlink="http://www.w3.org/1999/xlink">
    <!-- Generator: Sketch 48.2 (47327) - http://www.bohemiancoding.com/sketch -->
    <title>Face Happy</title>
    <desc>Created with Sketch.</desc>
    <defs></defs>
    <g id="NPS---Survey" stroke="none" stroke-width="1" fill="none" fill-rule="evenodd" transform="translate(-926.000000, -498.000000)">
        <g id="Group-6" transform="translate(42.000000, 417.000000)" fill="#549C05" fill-rule="nonzero">
            <g id="Group-3" transform="translate(0.000000, 57.000000)">
                <g id="Group-2" transform="translate(860.000000, 0.000000)">
                    <path d="M38,24 C37.9684944,24.0007345 37.9370934,24.0039143 37.9060801,24.0095109 C30.2251724,24.0614588 24,30.306983 24,38 C24,45.7251799 30.2748201,52 38,52 C45.7251799,52 52,45.7251799 52,38 C52,30.3077889 45.7760949,24.0627529 38.0962975,24.0095109 C38.0645015,24.0037904 38.0323007,24.00061 38,24 Z M38,25.2173913 C45.0673418,25.2173913 50.7826087,30.9326582 50.7826087,38 C50.7826087,45.0673418 45.0673418,50.7826087 38,50.7826087 C30.9326582,50.7826087 25.2173913,45.0673418 25.2173913,38 C25.2173913,30.9326582 30.9326582,25.2173913 38,25.2173913 Z M33.1304348,33.7391304 C32.1219148,33.7391304 31.3043478,34.5566974 31.3043478,35.5652174 C31.3043478,36.5737374 32.1219148,37.3913043 33.1304348,37.3913043 C34.1389548,37.3913043 34.9565217,36.5737374 34.9565217,35.5652174 C34.9565217,34.5566974 34.1389548,33.7391304 33.1304348,33.7391304 Z M42.8695652,33.7391304 C41.8610452,33.7391304 41.0434783,34.5566974 41.0434783,35.5652174 C41.0434783,36.5737374 41.8610452,37.3913043 42.8695652,37.3913043 C43.8780852,37.3913043 44.6956522,36.5737374 44.6956522,35.5652174 C44.6956522,34.5566974 43.8780852,33.7391304 42.8695652,33.7391304 Z M30.0608015,40.4276493 C29.8347545,40.4351037 29.6314736,40.5672637 29.5329302,40.7708369 C29.4343869,40.97441 29.4568273,41.2158346 29.5912025,41.397758 C29.5912025,41.397758 32.7753625,45.9130435 38,45.9130435 C43.2246375,45.9130435 46.4087975,41.397758 46.4087975,41.397758 C46.6044608,41.1239606 46.5411206,40.7433876 46.2673232,40.5477243 C45.9935258,40.352061 45.6129528,40.4154011 45.4172895,40.6891985 C45.4172895,40.6891985 42.514493,44.6956522 38,44.6956522 C33.485507,44.6956522 30.5827105,40.6891985 30.5827105,40.6891985 C30.4646159,40.5188454 30.2679545,40.4202906 30.0608015,40.4276493 Z" id="Face-Happy"></path>
                </g>
            </g>
        </g>
    </g>
</svg>